<svg width="61" height="61" viewBox="0 0 61 61" fill="none" xmlns="http://www.w3.org/2000/svg">
<circle cx="30.0166" cy="30.0166" r="30.0166" fill="white"/>
<path d="M56.0352 22.7513C54.5654 20.3742 48.7974 20.4113 47.5549 22.5465C47.1936 23.1673 47.2927 23.8319 47.3289 24.1295C47.699 27.1875 46.0772 30.0311 43.9937 33.6829C43.418 34.6919 37.7817 44.5787 31.0489 43.6882C28.0948 43.2977 26.1042 40.9958 24.898 39.5526C22.6049 36.8094 21.721 33.5122 20.0793 27.3847C19.5168 25.2862 19.2383 23.9119 18.1041 22.264C16.5636 20.0262 14.4227 18.7037 12.7738 18.3906C12.704 18.3774 12.6292 18.365 12.6208 18.3632C11.7347 18.212 10.2022 17.9507 8.68602 18.6971C7.1862 19.4355 6.35095 20.9468 5.68108 22.4953C2.59787 29.6207 1.05604 33.1832 2.50192 34.7565C3.81957 36.19 6.97794 36.0763 7.9286 34.8131C8.81248 33.6387 7.35422 32.0469 8.21114 30.6863C9.10962 29.2599 12.0248 28.9265 14.1437 29.7759C16.3978 30.6797 16.3863 32.5629 20.1951 39.1653C22.516 43.1885 23.5569 44.3222 24.703 45.2296C25.7805 46.0829 27.7207 47.619 30.3162 47.8273C35.6125 48.2526 40.1323 42.898 41.3363 41.3695C43.1359 39.0857 45.3224 37.0787 46.8196 34.5862C47.1238 34.0795 47.8259 32.9135 49.137 32.4201C49.9165 32.1265 50.2119 32.3599 51.7373 32.325C53.7001 32.2799 54.8338 32.2728 55.5249 31.5901C56.1037 31.0175 56.0245 30.4003 56.1227 26.8439C56.2178 23.3849 56.3142 23.2023 56.0347 22.7504L56.0352 22.7513ZM14.0225 26.301C13.7178 26.645 13.2695 26.3275 11.7082 26.3602C10.5122 26.3854 10.1708 26.5844 9.86881 26.301C9.4576 25.9145 9.51552 25.0041 9.92806 24.4616C10.4653 23.7559 11.488 23.8248 12.1234 23.8682C12.6491 23.904 13.1753 23.9394 13.6069 24.3431C14.1759 24.8754 14.3975 25.8774 14.0221 26.3014L14.0225 26.301Z" fill="url(#paint0_linear_92_153)"/>
<path d="M32.3749 35.9295C34.2875 35.9295 35.8379 34.379 35.8379 32.4664C35.8379 30.5539 34.2875 29.0034 32.3749 29.0034C30.4623 29.0034 28.9119 30.5539 28.9119 32.4664C28.9119 34.379 30.4623 35.9295 32.3749 35.9295Z" fill="#BADFC0"/>
<path d="M25.4745 28.1403C23.8739 27.5523 22.6455 25.5426 22.745 23.8085C22.7945 22.9436 23.166 22.2892 23.5166 21.6724C23.6842 21.377 24.4394 20.054 26.2554 18.8447C27.0446 18.319 29.4314 16.7741 32.7733 16.7475C36.7267 16.7161 40.8468 18.8018 42.5641 22.088C42.9409 22.8083 43.5922 24.0998 43.2168 25.5891C42.8768 26.9381 41.747 28.2425 40.3684 28.6152C37.7114 29.3342 36.5759 25.9322 33.0696 25.7668C29.4575 25.5966 28.0408 29.0835 25.4741 28.1403H25.4745Z" fill="url(#paint1_linear_92_153)"/>
<defs>
<linearGradient id="paint0_linear_92_153" x1="5.96583" y1="33.0223" x2="52.5376" y2="33.0223" gradientUnits="userSpaceOnUse">
<stop offset="0.3" stop-color="#BADFC0"/>
<stop offset="0.53" stop-color="#A8C6D1"/>
<stop offset="0.75" stop-color="#9BB5DE"/>
</linearGradient>
<linearGradient id="paint1_linear_92_153" x1="33.0346" y1="28.7147" x2="33.0346" y2="16.7471" gradientUnits="userSpaceOnUse">
<stop offset="0.14" stop-color="#BADFC0"/>
<stop offset="0.25" stop-color="#AFD9D2"/>
<stop offset="0.39" stop-color="#A6D5E3"/>
<stop offset="0.55" stop-color="#A0D2EC"/>
<stop offset="0.75" stop-color="#9FD2F0"/>
</linearGradient>
</defs>
</svg>
