<svg width="22" height="22" viewBox="0 0 22 22" fill="none" xmlns="http://www.w3.org/2000/svg">
<path fill-rule="evenodd" clip-rule="evenodd" d="M4.65546 4.6465C8.13452 1.17235 13.7901 1.20929 17.2904 4.70963C20.7922 8.21147 20.8277 13.8704 17.349 17.349C13.8703 20.8277 8.21144 20.7922 4.70959 17.2904C2.6344 15.2152 1.77745 12.3841 2.14543 9.69943C2.19699 9.32323 2.54375 9.06012 2.91992 9.11169C3.2961 9.16325 3.55925 9.50996 3.5077 9.88616C3.19605 12.1598 3.92133 14.5576 5.68187 16.3181C8.65597 19.2923 13.4442 19.3092 16.3767 16.3767C19.3092 13.4442 19.2922 8.65601 16.318 5.6819C13.3455 2.70931 8.56065 2.69077 5.62774 5.61877L6.31313 5.62222C6.69282 5.62413 6.99907 5.93347 6.99716 6.31317C6.99526 6.69286 6.68591 6.99911 6.30622 6.9972L3.9728 6.98548C3.5958 6.98358 3.29066 6.67843 3.28876 6.30144L3.27704 3.96801C3.27512 3.58833 3.58138 3.27898 3.96107 3.27707C4.34076 3.27516 4.65011 3.58142 4.65202 3.96111L4.65546 4.6465Z" fill="#555555"/>
<path opacity="0.5" d="M11 6.64584C11.3797 6.64584 11.6875 6.95365 11.6875 7.33334V10.7152L13.7778 12.8056C14.0463 13.0741 14.0463 13.5093 13.7778 13.7778C13.5093 14.0463 13.074 14.0463 12.8056 13.7778L10.581 11.5533C10.4091 11.3813 10.3125 11.1482 10.3125 10.905V7.33334C10.3125 6.95365 10.6203 6.64584 11 6.64584Z" fill="#555555"/>
</svg>
